<?xml version="1.0" encoding="utf-8"?>
<!-- Generator: Adobe Illustrator 22.0.1, SVG Export Plug-In . SVG Version: 6.00 Build 0)  -->
<svg version="1.1" id="Layer_1" xmlns="http://www.w3.org/2000/svg" xmlns:xlink="http://www.w3.org/1999/xlink" x="0px" y="0px"
	 viewBox="0 0 216 65" style="enable-background:new 0 0 216 65;" xml:space="preserve">
<style type="text/css">
	.st0{fill:#FFFFFF;}
</style>
<g>
	<path class="st0" d="M96.9,40.7h-3.1L85.6,18h-3.7v-2.3h15.7V18h-3.5l4.2,12.3l5.8-14.6h3.2l6.2,14.3l2.8-9
		c0.1-0.3,0.4-1.1,0.4-1.8c0-0.9-0.3-1.1-1.6-1.1h-1.9v-2.3h10.6V18h-2c-1.3,0-2,1.3-2.5,2.8l-6.8,20h-3.2l-6.5-15.1L96.9,40.7z"/>
	<path class="st0" d="M142.6,41.1c-2.9,0-5.5-1.3-7.1-4v3.5H123v-2.3h4V2.3h-4.1V0h12.5v19c1.6-2.7,4.2-4,7.3-4
		c6.9,0,10.8,5.5,10.8,13C153.5,35.3,149.2,41.1,142.6,41.1z M140.8,18.1c-2.4,0-3.7,1.4-4.8,4c-0.4,1.8-0.6,3.3-0.6,5.8
		c0,2.6,0.3,4.2,0.6,6c1.1,2.6,2.4,4,4.8,4c3.9,0,4-4.2,4-9.9C144.8,22.2,144.7,18.1,140.8,18.1z"/>
	<path class="st0" d="M188.4,40.6H176v-3.7c-1.1,2.2-4,4.3-8.2,4.3c-5.6,0-8.2-3.5-8.2-7.2c0-0.8,0-2.3,0-3.3V18h-4v-2.3h12.5v18
		c0,2.9,0.9,4.2,3,4.2c2.1,0,4.7-3.1,4.7-7V18h-4.2v-2.3h12.6v22.6h4V40.6z"/>
	<path class="st0" d="M211.6,25.4c-2.7,0-4.4-1.7-4.4-3.9c0-1.6,0.9-2,0.9-2.6c0-0.2-0.2-0.4-0.5-0.4c-1.3,0-4.7,3.5-4.7,8.9v10.7
		h4.6v2.3h-16.9v-2.3h4V18h-4v-2.3h12.2v4.8c2.1-4.2,5.2-5.3,7.7-5.3c3.5,0,5.7,2.3,5.7,5.3C216,23.1,214.4,25.4,211.6,25.4z"/>
</g>
<g>
	<path class="st0" d="M34.8,18.2c-4.1,0-4.2,6-4.2,9c0,3,0.2,8.6,4.2,8.6c4,0,4.2-5.6,4.2-8.6C38.9,24.2,38.9,18.2,34.8,18.2z"/>
	<path class="st0" d="M59.2,18.3c-2.4,0-3.5,2-3.5,4.4c0,2,1.1,4,3.2,4c1.6,0,2.8-0.8,3.9-1.9C62.8,22.4,62.2,18.3,59.2,18.3z"/>
	<path class="st0" d="M14.6,18.3c-2.4,0-3.5,2-3.5,4.4c0,2,1.1,4,3.2,4c1.6,0,2.8-0.8,3.9-1.9C18.3,22.4,17.6,18.3,14.6,18.3z"/>
	<path class="st0" d="M66,9H7.6C2.9,13.4,0,19.8,0,27c0,7,2.8,13.4,7.3,17.7h58.9c4.5-4.4,7.3-10.7,7.3-17.7
		C73.6,19.8,70.6,13.4,66,9z M14,39.9c-2.9,0-5.7-1.8-7.2-4.4l3.9-2.2c0.8,1.4,1.6,2.3,3.2,2.3c2.9,0,4.2-3.5,4.1-6.1
		c-1.4,0.8-2.8,1.4-4.4,1.4c-2.9,0-7.2-2.3-7.2-8c0-6.1,4.7-8.9,7.9-8.9c4.5,0,8.8,3.4,8.8,12.7C23.2,35.7,19,39.9,14,39.9z
		 M34.8,39.9c-4.5,0-8.8-3.4-8.8-12.7c0-8.8,3.5-13.1,8.8-13.1c5.4,0,8.8,4.3,8.8,13.1C43.6,36.4,39.2,39.9,34.8,39.9z M49,39.5
		h-4.5v-4.8H49V39.5z M58.5,39.9c-2.9,0-5.7-1.8-7.2-4.4l3.9-2.2c0.8,1.4,1.6,2.3,3.2,2.3c2.9,0,4.2-3.5,4.1-6.1
		c-1.4,0.8-2.8,1.4-4.4,1.4c-2.9,0-7.2-2.3-7.2-8c0-6.1,4.7-8.9,7.9-8.9c4.5,0,8.8,3.4,8.8,12.7C67.7,35.7,63.5,39.9,58.5,39.9z"/>
</g>
<g>
	<g>
		<path class="st0" d="M2.4,64.7V52.8h3.3c3.1,0,3.8,1.7,3.8,3.1c0,1.3-0.7,2.3-2,2.6c1.4,0.4,2.3,1.4,2.3,3c0,1.4-0.6,3.3-3.9,3.3
			H2.4z M4.8,57.9c1.5,0,3.5,0,3.5-2.1c0-2.1-1.9-2-3.4-2H3.7v4.1H4.8z M3.7,63.6h1.5c2.9,0,3.4-0.9,3.4-2.2C8.5,60,7.9,59,5.3,59
			H3.7V63.6z"/>
		<path class="st0" d="M19.9,58.8c0,3.9-1.8,6.2-4.3,6.2s-4.3-2.3-4.3-6.2s1.8-6.2,4.3-6.2S19.9,54.8,19.9,58.8z M12.5,58.8
			c0,3.6,1.4,5.2,3.1,5.2c1.7,0,3.1-1.6,3.1-5.2c0-3.6-1.4-5.2-3.1-5.2C13.9,53.6,12.5,55.1,12.5,58.8z"/>
		<path class="st0" d="M27.7,56c-0.4-1.3-1-2.4-2.5-2.4c-1.1,0-2.1,0.9-2.1,2c0,3,5.8,1.8,5.8,6c0,2.1-1.5,3.4-3.6,3.4
			c-2.1,0-3.6-1.3-4.1-3.4l1.2-0.3c0.3,1.4,1.4,2.6,2.9,2.6c1.2,0,2.3-0.9,2.3-2.2c0-3.3-5.8-1.9-5.8-5.9c0-2,1.5-3.2,3.4-3.2
			c1.9,0,3.1,1.4,3.5,3.1L27.7,56z"/>
		<path class="st0" d="M37.4,53.9h-3.2v10.9h-1.3V53.9h-3.2v-1.1h7.7V53.9z"/>
		<path class="st0" d="M46.8,58.8c0,3.9-1.8,6.2-4.3,6.2s-4.3-2.3-4.3-6.2s1.8-6.2,4.3-6.2S46.8,54.8,46.8,58.8z M39.4,58.8
			c0,3.6,1.4,5.2,3.1,5.2c1.7,0,3.1-1.6,3.1-5.2c0-3.6-1.4-5.2-3.1-5.2C40.8,53.6,39.4,55.1,39.4,58.8z"/>
		<path class="st0" d="M49.7,64.7h-1.3V52.8h2l4.8,9.4h0v-9.4h1.3v11.9h-1.3l-5.5-10.8h0V64.7z"/>
		<path class="st0" d="M59.7,54.5l-1,2.5h-0.8l0.8-2.4h-0.5v-1.8h1.5V54.5z"/>
		<path class="st0" d="M67.3,56c-0.4-1.3-1-2.4-2.5-2.4c-1.1,0-2.1,0.9-2.1,2c0,3,5.8,1.8,5.8,6c0,2.1-1.5,3.4-3.6,3.4
			c-2.1,0-3.6-1.3-4.1-3.4l1.2-0.3c0.3,1.4,1.4,2.6,2.9,2.6c1.2,0,2.3-0.9,2.3-2.2c0-3.3-5.8-1.9-5.8-5.9c0-2,1.5-3.2,3.4-3.2
			c1.9,0,3.1,1.4,3.5,3.1L67.3,56z"/>
		<path class="st0" d="M75.5,64.7h-1.3V52.8h2l4.8,9.4h0v-9.4h1.3v11.9h-1.3l-5.5-10.8h0V64.7z"/>
		<path class="st0" d="M88.1,52.8c3,0,3.9,1.9,3.9,3.3c0,1.5-0.9,3.3-4.1,3.3h-1.8v5.4h-1.3V52.8H88.1z M86.1,58.3h1
			c1.6,0,3.6-0.1,3.6-2.2c0-2.3-2.1-2.2-3.8-2.2h-0.9V58.3z"/>
		<path class="st0" d="M96.7,52.8c3.7,0,4.3,2,4.3,3.3c0,1.4-0.9,2.6-2.3,3l2.3,5.6h-1.4l-2.2-5.4h-2.4v5.4h-1.3V52.8H96.7z
			 M95.1,58.3h1.7c2.5,0,3-1.1,3-2.2c0-1.6-1-2.2-2.7-2.2h-1.9V58.3z"/>
		<path class="st0" d="M115.8,64.7h-1.3V52.8h2l4.8,9.4h0v-9.4h1.3v11.9h-1.3l-5.5-10.8h0V64.7z"/>
		<path class="st0" d="M131.5,53.9h-5.2v4.1h3.7V59h-3.7v4.6h5.6v1.1h-6.8V52.8h6.5V53.9z"/>
		<path class="st0" d="M142.2,64.7h-1.2l-2-9.7h0l-2.1,9.7h-1.2L133,52.8h1.2l2,9.6h0l2.1-9.6h1.2l2,9.6h0l2.1-9.6h1.2L142.2,64.7z"
			/>
		<path class="st0" d="M152.2,56c-0.4-1.3-1-2.4-2.5-2.4c-1.1,0-2.1,0.9-2.1,2c0,3,5.8,1.8,5.8,6c0,2.1-1.5,3.4-3.6,3.4
			c-2.1,0-3.6-1.3-4.1-3.4l1.2-0.3c0.3,1.4,1.4,2.6,2.9,2.6c1.2,0,2.3-0.9,2.3-2.2c0-3.3-5.8-1.9-5.8-5.9c0-2,1.5-3.2,3.4-3.2
			c1.9,0,3.1,1.4,3.5,3.1L152.2,56z"/>
		<path class="st0" d="M165.6,56c-0.4-1.3-1-2.4-2.5-2.4c-1.1,0-2.1,0.9-2.1,2c0,3,5.8,1.8,5.8,6c0,2.1-1.5,3.4-3.6,3.4
			c-2.1,0-3.6-1.3-4.1-3.4l1.2-0.3c0.3,1.4,1.4,2.6,2.9,2.6c1.2,0,2.3-0.9,2.3-2.2c0-3.3-5.8-1.9-5.8-5.9c0-2,1.5-3.2,3.4-3.2
			c1.9,0,3.1,1.4,3.5,3.1L165.6,56z"/>
		<path class="st0" d="M175.3,53.9h-3.2v10.9h-1.3V53.9h-3.2v-1.1h7.7V53.9z"/>
		<path class="st0" d="M183.5,64.7h-1.3l-1.1-3.8h-3.9l-1,3.8h-1.3l3.4-11.9h1.8L183.5,64.7z M179.2,53.6L179.2,53.6l-1.6,6.3h3.3
			L179.2,53.6z"/>
		<path class="st0" d="M190.7,53.9h-3.2v10.9h-1.3V53.9h-3.2v-1.1h7.7V53.9z"/>
		<path class="st0" d="M193.3,64.7h-1.3V52.8h1.3V64.7z"/>
		<path class="st0" d="M203.9,58.8c0,3.9-1.8,6.2-4.3,6.2c-2.5,0-4.3-2.3-4.3-6.2s1.8-6.2,4.3-6.2C202.1,52.5,203.9,54.8,203.9,58.8
			z M196.5,58.8c0,3.6,1.4,5.2,3.1,5.2c1.7,0,3.1-1.6,3.1-5.2c0-3.6-1.4-5.2-3.1-5.2C197.9,53.6,196.5,55.1,196.5,58.8z"/>
		<path class="st0" d="M207,64.7h-1.3V52.8h2l4.8,9.4h0v-9.4h1.3v11.9h-1.3L207,53.9h0V64.7z"/>
	</g>
	<g>
		<path class="st0" d="M107.3,57c-0.5,0.5-1.2,0.8-1.9,0.8s-1.4-0.3-1.9-0.8c-0.5-0.5-0.8-1.2-0.8-1.9c0-0.8,0.3-1.4,0.8-1.9
			c0.5-0.5,1.2-0.8,1.9-0.8c0.8,0,1.4,0.3,1.9,0.8c0.5,0.5,0.8,1.2,0.8,1.9C108.1,55.8,107.8,56.4,107.3,57z M103.7,53.3
			c-0.5,0.5-0.7,1-0.7,1.7c0,0.7,0.2,1.2,0.7,1.7c0.5,0.5,1,0.7,1.7,0.7c0.7,0,1.2-0.2,1.7-0.7c0.5-0.5,0.7-1,0.7-1.7
			c0-0.7-0.2-1.2-0.7-1.7c-0.5-0.5-1-0.7-1.7-0.7C104.7,52.7,104.1,52.9,103.7,53.3z M105.3,53.5c0.4,0,0.6,0,0.8,0.1
			c0.3,0.1,0.5,0.4,0.5,0.8c0,0.3-0.1,0.5-0.3,0.6c-0.1,0.1-0.2,0.1-0.4,0.1c0.2,0,0.4,0.1,0.5,0.3c0.1,0.2,0.2,0.3,0.2,0.5v0.2
			c0,0.1,0,0.1,0,0.2c0,0.1,0,0.1,0,0.2l0,0h-0.5c0,0,0,0,0,0c0,0,0,0,0,0l0-0.1v-0.2c0-0.3-0.1-0.6-0.3-0.7
			c-0.1-0.1-0.3-0.1-0.6-0.1h-0.4v1.2h-0.5v-3H105.3z M105.9,54c-0.1-0.1-0.3-0.1-0.6-0.1h-0.5V55h0.5c0.2,0,0.4,0,0.5-0.1
			c0.2-0.1,0.3-0.2,0.3-0.5C106.1,54.2,106,54.1,105.9,54z"/>
	</g>
</g>
</svg>
