<svg enable-background="new 0 0 216 65" viewBox="0 0 216 65" xmlns="http://www.w3.org/2000/svg"><path d="m96.9 40.7h-3.1l-8.2-22.7h-3.7v-2.3h15.7v2.3h-3.5l4.2 12.3 5.8-14.6h3.2l6.2 14.3 2.8-9c.1-.3.4-1.1.4-1.8 0-.9-.3-1.1-1.6-1.1h-1.9v-2.3h10.6v2.2h-2c-1.3 0-2 1.3-2.5 2.8l-6.8 20h-3.2l-6.5-15.1z"/><path d="m142.6 41.1c-2.9 0-5.5-1.3-7.1-4v3.5h-12.5v-2.3h4v-36h-4.1v-2.3h12.5v19c1.6-2.7 4.2-4 7.3-4 6.9 0 10.8 5.5 10.8 13 0 7.3-4.3 13.1-10.9 13.1zm-1.8-23c-2.4 0-3.7 1.4-4.8 4-.4 1.8-.6 3.3-.6 5.8 0 2.6.3 4.2.6 6 1.1 2.6 2.4 4 4.8 4 3.9 0 4-4.2 4-9.9 0-5.8-.1-9.9-4-9.9z"/><path d="m188.4 40.6h-12.4v-3.7c-1.1 2.2-4 4.3-8.2 4.3-5.6 0-8.2-3.5-8.2-7.2 0-.8 0-2.3 0-3.3v-12.7h-4v-2.3h12.5v18c0 2.9.9 4.2 3 4.2s4.7-3.1 4.7-7v-12.9h-4.2v-2.3h12.6v22.6h4v2.3z"/><path d="m211.6 25.4c-2.7 0-4.4-1.7-4.4-3.9 0-1.6.9-2 .9-2.6 0-.2-.2-.4-.5-.4-1.3 0-4.7 3.5-4.7 8.9v10.7h4.6v2.3h-16.9v-2.3h4v-20.1h-4v-2.3h12.2v4.8c2.1-4.2 5.2-5.3 7.7-5.3 3.5 0 5.7 2.3 5.7 5.3-.2 2.6-1.8 4.9-4.6 4.9z"/><path d="m34.8 18.2c-4.1 0-4.2 6-4.2 9s.2 8.6 4.2 8.6 4.2-5.6 4.2-8.6c-.1-3-.1-9-4.2-9z"/><path d="m59.2 18.3c-2.4 0-3.5 2-3.5 4.4 0 2 1.1 4 3.2 4 1.6 0 2.8-.8 3.9-1.9 0-2.4-.6-6.5-3.6-6.5z"/><path d="m14.6 18.3c-2.4 0-3.5 2-3.5 4.4 0 2 1.1 4 3.2 4 1.6 0 2.8-.8 3.9-1.9.1-2.4-.6-6.5-3.6-6.5z"/><path d="m66 9h-58.4c-4.7 4.4-7.6 10.8-7.6 18 0 7 2.8 13.4 7.3 17.7h58.9c4.5-4.4 7.3-10.7 7.3-17.7.1-7.2-2.9-13.6-7.5-18zm-52 30.9c-2.9 0-5.7-1.8-7.2-4.4l3.9-2.2c.8 1.4 1.6 2.3 3.2 2.3 2.9 0 4.2-3.5 4.1-6.1-1.4.8-2.8 1.4-4.4 1.4-2.9 0-7.2-2.3-7.2-8 0-6.1 4.7-8.9 7.9-8.9 4.5 0 8.8 3.4 8.8 12.7.1 9-4.1 13.2-9.1 13.2zm20.8 0c-4.5 0-8.8-3.4-8.8-12.7 0-8.8 3.5-13.1 8.8-13.1 5.4 0 8.8 4.3 8.8 13.1 0 9.2-4.4 12.7-8.8 12.7zm14.2-.4h-4.5v-4.8h4.5zm9.5.4c-2.9 0-5.7-1.8-7.2-4.4l3.9-2.2c.8 1.4 1.6 2.3 3.2 2.3 2.9 0 4.2-3.5 4.1-6.1-1.4.8-2.8 1.4-4.4 1.4-2.9 0-7.2-2.3-7.2-8 0-6.1 4.7-8.9 7.9-8.9 4.5 0 8.8 3.4 8.8 12.7.1 9-4.1 13.2-9.1 13.2z"/><path d="m2.4 64.7v-11.9h3.3c3.1 0 3.8 1.7 3.8 3.1 0 1.3-.7 2.3-2 2.6 1.4.4 2.3 1.4 2.3 3 0 1.4-.6 3.3-3.9 3.3h-3.5zm2.4-6.8c1.5 0 3.5 0 3.5-2.1s-1.9-2-3.4-2h-1.2v4.1zm-1.1 5.7h1.5c2.9 0 3.4-.9 3.4-2.2-.1-1.4-.7-2.4-3.3-2.4h-1.6z"/><path d="m19.9 58.8c0 3.9-1.8 6.2-4.3 6.2s-4.3-2.3-4.3-6.2 1.8-6.2 4.3-6.2 4.3 2.2 4.3 6.2zm-7.4 0c0 3.6 1.4 5.2 3.1 5.2s3.1-1.6 3.1-5.2-1.4-5.2-3.1-5.2-3.1 1.5-3.1 5.2z"/><path d="m27.7 56c-.4-1.3-1-2.4-2.5-2.4-1.1 0-2.1.9-2.1 2 0 3 5.8 1.8 5.8 6 0 2.1-1.5 3.4-3.6 3.4s-3.6-1.3-4.1-3.4l1.2-.3c.3 1.4 1.4 2.6 2.9 2.6 1.2 0 2.3-.9 2.3-2.2 0-3.3-5.8-1.9-5.8-5.9 0-2 1.5-3.2 3.4-3.2s3.1 1.4 3.5 3.1z"/><path d="m37.4 53.9h-3.2v10.9h-1.3v-10.9h-3.2v-1.1h7.7z"/><path d="m46.8 58.8c0 3.9-1.8 6.2-4.3 6.2s-4.3-2.3-4.3-6.2 1.8-6.2 4.3-6.2 4.3 2.2 4.3 6.2zm-7.4 0c0 3.6 1.4 5.2 3.1 5.2s3.1-1.6 3.1-5.2-1.4-5.2-3.1-5.2-3.1 1.5-3.1 5.2z"/><path d="m49.7 64.7h-1.3v-11.9h2l4.8 9.4v-9.4h1.3v11.9h-1.3l-5.5-10.8z"/><path d="m59.7 54.5-1 2.5h-.8l.8-2.4h-.5v-1.8h1.5z"/><path d="m67.3 56c-.4-1.3-1-2.4-2.5-2.4-1.1 0-2.1.9-2.1 2 0 3 5.8 1.8 5.8 6 0 2.1-1.5 3.4-3.6 3.4s-3.6-1.3-4.1-3.4l1.2-.3c.3 1.4 1.4 2.6 2.9 2.6 1.2 0 2.3-.9 2.3-2.2 0-3.3-5.8-1.9-5.8-5.9 0-2 1.5-3.2 3.4-3.2s3.1 1.4 3.5 3.1z"/><path d="m75.5 64.7h-1.3v-11.9h2l4.8 9.4v-9.4h1.3v11.9h-1.3l-5.5-10.8z"/><path d="m88.1 52.8c3 0 3.9 1.9 3.9 3.3 0 1.5-.9 3.3-4.1 3.3h-1.8v5.4h-1.3v-12zm-2 5.5h1c1.6 0 3.6-.1 3.6-2.2 0-2.3-2.1-2.2-3.8-2.2h-.9v4.4z"/><path d="m96.7 52.8c3.7 0 4.3 2 4.3 3.3 0 1.4-.9 2.6-2.3 3l2.3 5.6h-1.4l-2.2-5.4h-2.4v5.4h-1.3v-11.9zm-1.6 5.5h1.7c2.5 0 3-1.1 3-2.2 0-1.6-1-2.2-2.7-2.2h-1.9v4.4z"/><path d="m115.8 64.7h-1.3v-11.9h2l4.8 9.4v-9.4h1.3v11.9h-1.3l-5.5-10.8z"/><path d="m131.5 53.9h-5.2v4.1h3.7v1h-3.7v4.6h5.6v1.1h-6.8v-11.9h6.5v1.1z"/><path d="m142.2 64.7h-1.2l-2-9.7-2.1 9.7h-1.2l-2.7-11.9h1.2l2 9.6 2.1-9.6h1.2l2 9.6 2.1-9.6h1.2z"/><path d="m152.2 56c-.4-1.3-1-2.4-2.5-2.4-1.1 0-2.1.9-2.1 2 0 3 5.8 1.8 5.8 6 0 2.1-1.5 3.4-3.6 3.4s-3.6-1.3-4.1-3.4l1.2-.3c.3 1.4 1.4 2.6 2.9 2.6 1.2 0 2.3-.9 2.3-2.2 0-3.3-5.8-1.9-5.8-5.9 0-2 1.5-3.2 3.4-3.2s3.1 1.4 3.5 3.1z"/><path d="m165.6 56c-.4-1.3-1-2.4-2.5-2.4-1.1 0-2.1.9-2.1 2 0 3 5.8 1.8 5.8 6 0 2.1-1.5 3.4-3.6 3.4s-3.6-1.3-4.1-3.4l1.2-.3c.3 1.4 1.4 2.6 2.9 2.6 1.2 0 2.3-.9 2.3-2.2 0-3.3-5.8-1.9-5.8-5.9 0-2 1.5-3.2 3.4-3.2s3.1 1.4 3.5 3.1z"/><path d="m175.3 53.9h-3.2v10.9h-1.3v-10.9h-3.2v-1.1h7.7z"/><path d="m183.5 64.7h-1.3l-1.1-3.8h-3.9l-1 3.8h-1.3l3.4-11.9h1.8zm-4.3-11.1-1.6 6.3h3.3z"/><path d="m190.7 53.9h-3.2v10.9h-1.3v-10.9h-3.2v-1.1h7.7z"/><path d="m193.3 64.7h-1.3v-11.9h1.3z"/><path d="m203.9 58.8c0 3.9-1.8 6.2-4.3 6.2s-4.3-2.3-4.3-6.2 1.8-6.2 4.3-6.2c2.5-.1 4.3 2.2 4.3 6.2zm-7.4 0c0 3.6 1.4 5.2 3.1 5.2s3.1-1.6 3.1-5.2-1.4-5.2-3.1-5.2-3.1 1.5-3.1 5.2z"/><path d="m207 64.7h-1.3v-11.9h2l4.8 9.4v-9.4h1.3v11.9h-1.3l-5.5-10.8z"/><path d="m107.3 57c-.5.5-1.2.8-1.9.8s-1.4-.3-1.9-.8-.8-1.2-.8-1.9c0-.8.3-1.4.8-1.9s1.2-.8 1.9-.8c.8 0 1.4.3 1.9.8s.8 1.2.8 1.9-.3 1.3-.8 1.9zm-3.6-3.7c-.5.5-.7 1-.7 1.7s.2 1.2.7 1.7 1 .7 1.7.7 1.2-.2 1.7-.7.7-1 .7-1.7-.2-1.2-.7-1.7-1-.7-1.7-.7c-.7.1-1.3.3-1.7.7zm1.6.2c.4 0 .6 0 .8.1.3.1.5.4.5.8 0 .3-.1.5-.3.6-.1.1-.2.1-.4.1.2 0 .4.1.5.3s.2.3.2.5v.2.2.2h-.5v-.1-.2c0-.3-.1-.6-.3-.7-.1-.1-.3-.1-.6-.1h-.4v1.2h-.5v-3h1zm.6.5c-.1-.1-.3-.1-.6-.1h-.5v1.1h.5c.2 0 .4 0 .5-.1.2-.1.3-.2.3-.5 0-.2-.1-.3-.2-.4z"/></svg>