<?xml version="1.0" encoding="utf-8"?>
<!-- Generator: Adobe Illustrator 24.0.2, SVG Export Plug-In . SVG Version: 6.00 Build 0)  -->
<svg version="1.1" id="Layer_1" xmlns="http://www.w3.org/2000/svg" xmlns:xlink="http://www.w3.org/1999/xlink" x="0px" y="0px"
	 viewBox="0 0 202.4 92" style="enable-background:new 0 0 202.4 92;" xml:space="preserve">
<style type="text/css">
	.st0{fill:#FFFFFF;}
	.st1{fill:#EEAD1F;}
</style>
<g>
	<g>
		<path class="st0" d="M22.7,61.2H18L5.6,27H0v-3.5h23.7V27h-5.2l6.4,18.5l8.7-22h4.8L47.6,45l4.3-13.5c0.1-0.4,0.6-1.7,0.6-2.8
			c0-1.3-0.4-1.7-2.4-1.7h-2.9v-3.5h15.9V27h-2.9c-2,0-2.9,2-3.7,4.2l-10.2,30h-4.8l-9.8-22.7L22.7,61.2z"/>
	</g>
	<g>
		<path class="st0" d="M91.4,61.8c-4.4,0-8.3-2-10.7-6.1V61H62v-3.5h6v-54h-6.2V0h18.8v28.6c2.5-4.1,6.4-6.1,10.9-6.1
			c10.4,0,16.3,8.3,16.3,19.5C107.9,53.2,101.3,61.8,91.4,61.8z M88.7,27.3c-3.6,0-5.6,2.1-7.2,6c-0.6,2.7-1,4.9-1,8.7
			c0,3.9,0.4,6.4,1,9c1.6,3.9,3.6,6,7.2,6c5.9,0,6-6.3,6-14.9C94.7,33.4,94.6,27.3,88.7,27.3z"/>
	</g>
	<g>
		<path class="st0" d="M160.4,61.1h-18.7v-5.6c-1.7,3.3-6,6.5-12.3,6.5c-8.5,0-12.3-5.3-12.3-10.8c0-1.1,0-3.5,0-4.9V27h-6v-3.5
			h18.8v27.1c0,4.4,1.3,6.4,4.6,6.4c3.2,0,7.1-4.7,7.1-10.5V27h-6.3v-3.5h19v34h6L160.4,61.1L160.4,61.1z"/>
	</g>
	<g>
		<path class="st0" d="M195.2,38.2c-4,0-6.7-2.6-6.7-5.8c0-2.5,1.3-3,1.3-3.9c0-0.3-0.3-0.6-0.8-0.6c-1.9,0-7.1,5.3-7.1,13.4v16.2
			h6.8V61h-25.5v-3.5h6V27h-6v-3.5h18.4v7.2c3.1-6.4,7.9-8,11.6-8c5.2,0,8.6,3.4,8.6,8C201.8,34.8,199.3,38.2,195.2,38.2z"/>
	</g>
</g>
<rect x="0.6" y="84.4" class="st1" width="201.8" height="7.6"/>
</svg>
