<svg enable-background="new 0 0 201.8 61.9" viewBox="0 0 201.8 61.9" xmlns="http://www.w3.org/2000/svg"><g fill="#231f20"><path d="m22.7 61.2h-4.7l-12.4-34.2h-5.6v-3.5h23.7v3.5h-5.2l6.4 18.5 8.7-22h4.8l9.2 21.5 4.3-13.5c.1-.4.6-1.7.6-2.8 0-1.3-.4-1.7-2.4-1.7h-2.9v-3.5h15.9v3.5h-2.9c-2 0-2.9 2-3.7 4.2l-10.2 30h-4.8l-9.8-22.7z"/><path d="m91.4 61.8c-4.4 0-8.3-2-10.7-6.1v5.3h-18.7v-3.5h6v-54h-6.2v-3.5h18.8v28.6c2.5-4.1 6.4-6.1 10.9-6.1 10.4 0 16.3 8.3 16.3 19.5.1 11.2-6.5 19.8-16.4 19.8zm-2.7-34.5c-3.6 0-5.6 2.1-7.2 6-.6 2.7-1 4.9-1 8.7 0 3.9.4 6.4 1 9 1.6 3.9 3.6 6 7.2 6 5.9 0 6-6.3 6-14.9 0-8.7-.1-14.8-6-14.8z"/><path d="m160.4 61.1h-18.7v-5.6c-1.7 3.3-6 6.5-12.3 6.5-8.5 0-12.3-5.3-12.3-10.8 0-1.1 0-3.5 0-4.9v-19.3h-6v-3.5h18.8v27.1c0 4.4 1.3 6.4 4.6 6.4 3.2 0 7.1-4.7 7.1-10.5v-19.5h-6.3v-3.5h19v34h6v3.6z"/><path d="m195.2 38.2c-4 0-6.7-2.6-6.7-5.8 0-2.5 1.3-3 1.3-3.9 0-.3-.3-.6-.8-.6-1.9 0-7.1 5.3-7.1 13.4v16.2h6.8v3.5h-25.5v-3.5h6v-30.5h-6v-3.5h18.4v7.2c3.1-6.4 7.9-8 11.6-8 5.2 0 8.6 3.4 8.6 8 0 4.1-2.5 7.5-6.6 7.5z"/></g></svg>